<svg xmlns="http://www.w3.org/2000/svg" xmlns:xlink="http://www.w3.org/1999/xlink" width="438px" height="125px" viewBox="0 0 438 125" version="1.1">
    <title>BitcoinFoundation-hrz-rgb-rev </title>
    <g id="Page-1" stroke="none" stroke-width="1" fill="none" fill-rule="evenodd">
        <g id="Bitcoin-Foundation-Logo-1" transform="translate(-293.000000, -513.000000)">
            <g id="BitcoinFoundation-hrz-rgb-rev-" transform="translate(293.000000, 513.000000)">
                <path d="M36.1694732,65.7954762 L9.65010386,65.7954762 L9.65010386,49.7365248 L33.2965416,49.7365248 C34.8066723,49.7365248 36.2063057,49.8654384 37.4954417,50.0864331 C42.836148,51.0624933 46.1694854,53.9354249 46.1694854,57.9133303 C46.1694854,62.6278849 42.2099963,65.7954762 36.1694732,65.7954762 L36.1694732,65.7954762 Z M9.65010386,26.6241577 L32.7808872,26.6241577 C40.1289624,26.6241577 43.8122082,29.865414 43.8122082,34.6536335 C43.8122082,37.8948897 41.4180984,40.3258319 37.4954417,41.3203083 L19.2265428,41.6333841 L9.65010386,41.7991302 L9.65010386,26.6241577 Z M41.3996822,45.4639597 C48.8214224,44.9483053 53.8306366,40.1785021 53.8306366,33.5486597 C53.8306366,24.5615401 45.4328363,18.594682 32.7808872,18.594682 L4.19220214e-13,18.594682 L4.19220214e-13,73.824952 L36.1694732,73.824952 C48.0111083,73.824952 55.8932542,67.6370991 55.8932542,58.4289847 C55.8932542,50.7678336 50.0737259,45.6112895 41.3996822,45.4639597 L41.3996822,45.4639597 Z M9.64642061,8.17496394 L19.2210179,8.17496394 L19.2210179,0 L9.64642061,0 L9.64642061,8.17496394 Z M27.9116363,8.20074666 L37.4862336,8.20074666 L37.4862336,0.0257827202 L27.9116363,0.0257827202 L27.9116363,8.20074666 Z M9.64642061,92.2082157 L19.2210179,92.2082157 L19.2210179,84.0332517 L9.64642061,84.0332517 L9.64642061,92.2082157 Z M27.9116363,92.2339984 L37.4862336,92.2339984 L37.4862336,84.0590344 L27.9116363,84.0590344 L27.9116363,92.2339984 Z M78.5986226,73.8288194 L88.1732199,73.8288194 L88.1732199,18.5893413 L78.5986226,18.5893413 L78.5986226,73.8288194 Z M107.549671,18.5891571 L165.21825,18.5891571 L165.21825,26.6904561 L140.914352,26.6904561 L140.914352,73.8286352 L131.339755,73.8286352 L131.339755,26.6904561 L107.549671,26.6904561 L107.549671,18.5891571 Z M218.406712,25.7335489 C203.456418,25.7335489 193.511654,33.9085128 193.511654,46.208712 C193.511654,58.5089112 203.456418,66.75754 218.406712,66.75754 C227.246502,66.75754 235.053141,64.696764 237.999738,61.1608481 L237.999738,71.4720946 C233.432513,73.9767017 225.552209,75.5973298 218.406712,75.5973298 C197.34223,75.5973298 183.275914,63.8127851 183.275914,46.208712 C183.275914,28.6064806 197.34223,16.8956007 218.406712,16.8956007 C224.813718,16.8956007 232.18021,18.5162289 236.747434,21.0189943 L236.747434,31.1092461 C233.358848,27.1331823 225.994198,25.7335489 218.406712,25.7335489 M314.462446,46.2088962 C314.462446,34.2033567 305.403503,25.9547278 291.556341,25.9547278 C277.71102,25.9547278 268.650236,34.2033567 268.650236,46.2088962 C268.650236,58.2144357 277.71102,66.5367294 291.556341,66.5367294 C305.403503,66.5367294 314.462446,58.2144357 314.462446,46.2088962 M258.635491,46.2088962 C258.635491,28.752153 271.817827,17.1904446 291.556341,17.1904446 C311.294855,17.1904446 324.479033,28.752153 324.479033,46.2088962 C324.479033,63.6656394 311.294855,75.3010127 291.556341,75.3010127 C271.817827,75.3010127 258.635491,63.6656394 258.635491,46.2088962 M347.179061,73.8288194 L356.753658,73.8288194 L356.753658,18.5893413 L347.179061,18.5893413 L347.179061,73.8288194 Z M380.769894,18.5891571 L390.049831,18.5891571 L427.981738,60.1288027 L427.981738,18.5891571 L437.63,18.5891571 L437.63,73.8286352 L427.981738,73.8286352 L390.197161,32.5099844 L390.344491,49.6702264 L390.344491,73.8286352 L380.769894,73.8286352 L380.769894,18.5891571 Z" id="Combined-Shape" fill="#FF9600"/>
                <path d="M75.8787298,104.454824 L92.2599653,104.454824 L92.2599653,107.292764 L79.2304834,107.292764 L79.2304834,113.38117 L90.8676984,113.38117 L90.8676984,116.219111 L79.2304834,116.219111 L79.2304834,123.802914 L75.8787298,123.802914 L75.8787298,104.454824 Z M122.581181,114.128684 C122.581181,109.924259 119.406223,107.034753 114.559072,107.034753 C109.708237,107.034753 106.535121,109.924259 106.535121,114.128684 C106.535121,118.333109 109.708237,121.248398 114.559072,121.248398 C119.406223,121.248398 122.581181,118.333109 122.581181,114.128684 M103.026829,114.128684 C103.026829,108.014496 107.645619,103.964768 114.559072,103.964768 C121.470682,103.964768 126.087631,108.014496 126.087631,114.128684 C126.087631,120.242872 121.470682,124.318384 114.559072,124.318384 C107.645619,124.318384 103.026829,120.242872 103.026829,114.128684 M137.420241,104.454824 L140.773837,104.454824 L140.773837,116.064414 C140.773837,119.158341 143.457081,121.068104 147.455244,121.068104 C151.37606,121.068104 153.981956,119.158341 153.981956,116.064414 L153.981956,104.454824 L157.33371,104.454824 L157.33371,116.064414 C157.33371,120.964973 153.363171,124.24122 147.403679,124.24122 C141.418405,124.24122 137.420241,120.964973 137.420241,116.064414 L137.420241,104.454824 Z M169.134276,104.454824 L172.386582,104.454824 L185.670208,119.003644 L185.670208,104.454824 L189.049586,104.454824 L189.049586,123.802914 L185.670208,123.802914 L172.436306,109.329599 L172.487872,115.340656 L172.487872,123.802914 L169.134276,123.802914 L169.134276,104.454824 Z M211.732671,120.939374 C215.937096,120.939374 218.723471,118.25613 218.723471,114.257966 C218.723471,110.105107 215.937096,107.318731 211.732671,107.318731 L204.690305,107.318731 L204.690305,120.939374 L211.732671,120.939374 Z M201.310927,104.455008 L211.732671,104.455008 C217.94999,104.455008 222.077067,108.246909 222.077067,114.129053 C222.077067,119.8565 217.94999,123.803098 211.732671,123.803098 L201.310927,123.803098 L201.310927,104.455008 Z M247.881702,116.115059 L243.778566,107.706209 L239.524418,116.115059 L247.881702,116.115059 Z M242.025341,104.453903 L245.636764,104.453903 L255.388157,123.801993 L251.596255,123.801993 L249.224245,118.953 L238.130309,118.953 L235.679109,123.801993 L231.91299,123.801993 L242.025341,104.453903 Z M264.066068,104.454824 L284.264988,104.454824 L284.264988,107.292764 L275.751165,107.292764 L275.751165,123.802914 L272.39757,123.802914 L272.39757,107.292764 L264.066068,107.292764 L264.066068,104.454824 Z M294.900912,123.803098 L298.254508,123.803098 L298.254508,104.455008 L294.900912,104.455008 L294.900912,123.803098 Z M329.61624,114.128684 C329.61624,109.924259 326.441282,107.034753 321.594131,107.034753 C316.743296,107.034753 313.57018,109.924259 313.57018,114.128684 C313.57018,118.333109 316.743296,121.248398 321.594131,121.248398 C326.441282,121.248398 329.61624,118.333109 329.61624,114.128684 M310.061889,114.128684 C310.061889,108.014496 314.680679,103.964768 321.594131,103.964768 C328.505742,103.964768 333.12269,108.014496 333.12269,114.128684 C333.12269,120.242872 328.505742,124.318384 321.594131,124.318384 C314.680679,124.318384 310.061889,120.242872 310.061889,114.128684 M344.91939,104.454824 L348.171696,104.454824 L361.455321,119.003644 L361.455321,104.454824 L364.834699,104.454824 L364.834699,123.802914 L361.455321,123.802914 L348.221419,109.329599 L348.272985,115.340656 L348.272985,123.802914 L344.91939,123.802914 L344.91939,104.454824 Z" id="Combined-Shape" fill="#14161E"/>
            </g>
        </g>
    </g>
</svg>