<svg xmlns="http://www.w3.org/2000/svg" width="170" height="22" viewBox="0 0 170 22" fill="none">
<path d="M25 4.40777H30.5369C31.7181 4.40777 32.7852 4.67961 33.7383 5.2233C34.7047 5.75404 35.4631 6.52427 36.0134 7.53398C36.5772 8.54369 36.8591 9.72815 36.8591 11.0874C36.8591 12.5372 36.5839 13.7864 36.0336 14.835C35.4832 15.8706 34.7248 16.6602 33.7584 17.2039C32.8054 17.7346 31.7316 18 30.5369 18H25V4.40777ZM30.255 15.6893C31.3423 15.6893 32.2416 15.301 32.953 14.5243C33.6644 13.7476 34.0201 12.6019 34.0201 11.0874C34.0201 10.1553 33.8524 9.35922 33.5168 8.69903C33.1812 8.03883 32.7248 7.54693 32.1477 7.2233C31.5839 6.88673 30.953 6.71845 30.255 6.71845H27.7987V15.6893H30.255Z" fill="white"/>
<path d="M43.0911 10.3107C42.5273 10.3107 42.0777 10.5372 41.7421 10.9903C41.4065 11.4434 41.2387 11.9741 41.2387 12.5825V18H38.6414V8.21359H41.2387V9.49514C41.4401 9.08091 41.7153 8.76375 42.0643 8.54369C42.4132 8.32362 42.8226 8.21359 43.2924 8.21359H44.5408V10.3107H43.0911Z" fill="white"/>
<path d="M45.9558 8.21359H48.5531V18H45.9558V8.21359ZM48.674 4.23301V6.79612H45.8753V4.23301H48.674Z" fill="white"/>
<path d="M51.7789 10.3107H49.8863V8.21359H51.7789V6.87379C51.7789 5.94175 52.0205 5.22977 52.5037 4.73786C52.9869 4.24595 53.6782 4 54.5775 4H57.054V6.09709H55.4433C55.0809 6.09709 54.8124 6.1877 54.6379 6.36893C54.4634 6.53722 54.3762 6.82201 54.3762 7.2233V8.21359H57.2554V10.3107H54.3762V18H51.7789V10.3107Z" fill="white"/>
<path d="M62.2617 4.79612V8.21359H65V10.3107H62.2617V14.835C62.2617 15.5469 62.5973 15.9029 63.2685 15.9029H64.9396V18H62.5033C61.5906 18 60.8859 17.767 60.3893 17.301C59.906 16.822 59.6644 16.0906 59.6644 15.1068V10.3107H57.7718V8.21359H59.6644V5.84466L62.2617 4.79612Z" fill="white"/>
<path d="M15.4075 17.5047C15.4075 18.2225 15.1386 18.8518 14.7069 19.3344C14.7018 19.3401 14.6983 19.347 14.6967 19.3545C14.6902 19.3854 14.7178 19.4126 14.7484 19.4051C15.9934 19.1001 17 18.0426 17 16.6538V9.45485C17 7.32679 15.8048 5.36037 13.8647 4.29634L6.03084 0L4.47901 0.873256L12.2722 5.14727C14.2123 6.21131 15.4075 8.17772 15.4075 10.3058V17.5047Z" fill="white"/>
<path d="M13.2177 18.7339V11.5349C13.2177 9.40685 12.0226 7.44043 10.0824 6.3764L2.28927 2.10238L3.8411 1.22913L11.675 5.52547C13.6151 6.5895 14.8103 8.55591 14.8103 10.684V17.8829C14.8103 19.2717 13.8036 20.3292 12.5587 20.6342C12.528 20.6417 12.5005 20.6145 12.507 20.5836C12.5085 20.5761 12.5121 20.5692 12.5172 20.5635C12.9489 20.0809 13.2177 19.4516 13.2177 18.7339Z" fill="white"/>
<path fill-rule="evenodd" clip-rule="evenodd" d="M0 3.39016L1.57205 2.50552L9.40591 6.80187C11.346 7.8659 12.5412 9.83231 12.5412 11.9604V19.1948L12.541 19.1947C12.5143 21.3575 10.0421 22.7016 8.06221 21.6158L0.962165 17.7219L0 17.2078V3.39016ZM10.9487 12.8338V17.013L5.67341 14.1199V6.50164L7.81338 7.67527C9.75351 8.7393 10.9487 10.7057 10.9487 12.8338ZM3.68274 5.40989L4.47901 5.84659V14.7745L4.5626 14.8191L10.9487 18.3214V19.1299L3.69301 15.1507L3.68274 15.1565V5.40989ZM2.3888 4.70025V15.8432L2.42622 15.8635L2.3888 15.8846L10.9389 20.5737C10.8674 20.9477 10.4182 21.1611 10.0529 20.9607L1.59254 16.3208V4.26355L2.3888 4.70025Z" fill="white"/>
<path d="M160.203 17.9921V7.91784H162.782V9.25709C163.281 8.41756 164.321 7.75793 165.28 7.75793H166.12C167.859 7.75793 169.318 9.39701 169.318 11.6158V17.9921H166.739V12.0355C166.739 10.9561 166.16 10.0566 165.24 10.0566H164.601C163.541 10.0566 162.782 11.176 162.782 12.6152V17.9921H160.203Z" fill="white"/>
<path d="M153.249 18.1521C150.691 18.1521 148.772 15.9533 148.772 12.955C148.772 9.9367 150.691 7.75793 153.229 7.75793H154.029C156.587 7.75793 158.486 9.9367 158.486 12.955C158.486 15.9733 156.587 18.1521 154.049 18.1521H153.249ZM153.949 15.9333C155.028 15.9333 155.888 14.634 155.888 12.955C155.888 11.2759 155.028 9.97668 153.929 9.97668H153.329C152.23 9.97668 151.37 11.236 151.37 12.955C151.37 14.674 152.23 15.9333 153.329 15.9333H153.949Z" fill="white"/>
<path d="M144.47 17.9921V7.91779H147.048V17.9921H144.47ZM144.39 4H147.148V6.31869H144.39V4Z" fill="white"/>
<path d="M137.718 5.47917L140.297 4.39978V7.91779H143.015V10.0766H140.297V14.7339C140.297 15.5735 140.717 15.8333 141.296 15.8333H142.955V17.9921H140.537C138.778 17.9921 137.718 17.0726 137.718 15.0138V10.0766H135.839V7.91779H137.718V5.47917Z" fill="white"/>
<path d="M129.351 18.1521C127.272 18.1521 125.953 16.9727 125.953 15.1937C125.953 13.2748 127.532 12.2754 129.471 11.9955L132.089 11.6158V11.3959C132.089 10.4764 131.49 9.81677 130.75 9.81677H130.05C129.251 9.81677 128.691 10.3165 128.611 11.176H126.013C126.173 9.09718 127.991 7.75793 130.05 7.75793H130.75C133.229 7.75793 134.668 9.43699 134.668 11.4958V15.0938C134.668 15.7734 135.028 15.8334 135.787 15.8334V17.9922H134.068C133.069 17.9922 132.449 17.5924 132.389 16.6729C131.889 17.5924 130.75 18.1521 129.351 18.1521ZM128.571 15.0938C128.571 15.7734 129.111 16.1932 129.85 16.1932C131.19 16.1932 132.089 15.2537 132.089 13.8945V13.4547L130.17 13.7945C129.211 13.9744 128.571 14.2143 128.571 15.0938Z" fill="white"/>
<path d="M118.751 18.152C116.193 18.152 114.534 15.7933 114.534 12.9549C114.534 10.0966 116.213 7.75788 118.731 7.75788H119.331C120.23 7.75788 121.19 8.33755 121.65 9.01716V4H124.228V17.9921H121.65V16.9127C121.11 17.6523 120.091 18.152 119.311 18.152H118.751ZM119.811 15.9333C120.95 15.9333 121.83 14.694 121.83 12.9549C121.83 11.2159 120.95 9.97662 119.811 9.97662H119.171C118.072 9.97662 117.132 11.1959 117.132 12.9549C117.132 14.7139 118.072 15.9333 119.171 15.9333H119.811Z" fill="white"/>
<path d="M103.77 17.9921V7.91784H106.349V9.25709C106.849 8.41756 107.888 7.75793 108.847 7.75793H109.687C111.426 7.75793 112.885 9.39701 112.885 11.6158V17.9921H110.307V12.0355C110.307 10.9561 109.727 10.0566 108.807 10.0566H108.168C107.108 10.0566 106.349 11.176 106.349 12.6152V17.9921H103.77Z" fill="white"/>
<path d="M101.522 7.91772V17.992H98.9435V16.6528C98.4438 17.4923 97.4044 18.1519 96.4449 18.1519H95.6054C93.8664 18.1519 92.4072 16.5129 92.4072 14.2941V7.91772H94.9858V13.8744C94.9858 14.9537 95.5654 15.8532 96.4849 15.8532H97.1246C98.184 15.8532 98.9435 14.7339 98.9435 13.2947V7.91772H101.522Z" fill="white"/>
<path d="M85.5529 18.1521C82.9944 18.1521 81.0754 15.9533 81.0754 12.955C81.0754 9.9367 82.9944 7.75793 85.5329 7.75793H86.3325C88.891 7.75793 90.7899 9.9367 90.7899 12.955C90.7899 15.9733 88.891 18.1521 86.3525 18.1521H85.5529ZM86.2525 15.9333C87.3319 15.9333 88.1914 14.634 88.1914 12.955C88.1914 11.2759 87.3319 9.97668 86.2325 9.97668H85.6329C84.5335 9.97668 83.674 11.236 83.674 12.955C83.674 14.674 84.5335 15.9333 85.6329 15.9333H86.2525Z" fill="white"/>
<path d="M71 17.9921V4H80.3147V6.37866H73.7784V9.6568H79.9749V12.0355H73.7784V17.9921H71Z" fill="white"/>
</svg>